<svg width="20" height="20" fill="none" xmlns="http://www.w3.org/2000/svg"><path d="M10 1.667a4.171 4.171 0 0 0-4.167 4.166V7.5H5c-.92 0-1.667.747-1.667 1.667v7.5c0 .919.748 1.666 1.667 1.666h10c.92 0 1.667-.747 1.667-1.666v-7.5c0-.92-.748-1.667-1.667-1.667h-.833V5.833A4.171 4.171 0 0 0 10 1.667ZM7.5 5.833c0-1.378 1.122-2.5 2.5-2.5s2.5 1.122 2.5 2.5V7.5h-5V5.833Zm7.502 10.834h-4.169v-1.899a1.66 1.66 0 0 0 .834-1.435 1.668 1.668 0 0 0-3.334 0c0 .614.338 1.146.834 1.435v1.899H5v-7.5h10l.002 7.5Z" fill="#333"/></svg>