<svg width="20" height="20" fill="none" xmlns="http://www.w3.org/2000/svg"><path d="M5 1.667a1.667 1.667 0 0 0-1.667 1.666v13.334A1.666 1.666 0 0 0 5 18.333h10a1.667 1.667 0 0 0 1.667-1.666V3.333A1.666 1.666 0 0 0 15 1.667H5Zm5 2.5a4.167 4.167 0 1 1 0 8.333 4.167 4.167 0 0 1 0-8.333M10 5a6.27 6.27 0 0 0-.8 1.667h1.6A6.027 6.027 0 0 0 10 5m-1.083.183a3.245 3.245 0 0 0-1.8 1.484h1.216c.15-.517.334-1.017.584-1.484Zm2.158 0c.25.467.442.967.592 1.484h1.216c-.383-.692-1.041-1.217-1.808-1.484M6.775 7.5a3.407 3.407 0 0 0-.108.833c0 .292.041.567.108.834h1.408a6.882 6.882 0 0 1-.058-.834c0-.283.025-.558.058-.833H6.775Zm2.25 0c-.042.267-.067.55-.067.833 0 .284.025.559.067.834h1.95c.033-.275.067-.55.067-.834 0-.283-.034-.566-.067-.833h-1.95Zm2.792 0c.033.275.058.55.058.833 0 .284-.025.559-.058.834h1.408a3.41 3.41 0 0 0 .108-.834 3.41 3.41 0 0 0-.108-.833h-1.408m-4.7 2.5c.383.692 1.033 1.217 1.8 1.483A7.423 7.423 0 0 1 8.333 10H7.117ZM9.2 10c.175.6.458 1.15.8 1.667A5.92 5.92 0 0 0 10.8 10H9.2m2.467 0a7.446 7.446 0 0 1-.592 1.483c.767-.266 1.425-.791 1.808-1.483h-1.216Zm-5.834 4.167h8.334v1.666H5.833v-1.666Z" fill="#333"/></svg>