<svg width="20" height="20" viewBox="0 0 20 20" fill="none" xmlns="http://www.w3.org/2000/svg">
<path d="M18.9747 5.79446C19.1184 6.22275 18.6498 7.2065 17.569 8.7457C17.419 8.95985 17.216 9.24426 16.9598 9.59895C16.7099 9.94025 16.5381 10.1812 16.4444 10.3217C16.3507 10.4622 16.2554 10.6279 16.1585 10.8186C16.0617 11.0093 16.0242 11.1499 16.0461 11.2402C16.068 11.3305 16.1086 11.446 16.1679 11.5865C16.2273 11.7271 16.3288 11.8709 16.4725 12.0182C16.6162 12.1654 16.7942 12.3427 17.0067 12.5502C17.0317 12.5636 17.0473 12.577 17.0535 12.5903C17.9345 13.467 18.5311 14.2065 18.8435 14.8088C18.8622 14.8423 18.8826 14.8841 18.9044 14.9343C18.9263 14.9845 18.9482 15.0731 18.97 15.2003C18.9919 15.3274 18.9903 15.4412 18.9653 15.5416C18.9403 15.642 18.8622 15.734 18.731 15.8176C18.5998 15.9013 18.4155 15.9431 18.1781 15.9431L15.779 15.9833C15.629 16.0167 15.4541 16 15.2542 15.9331C15.0543 15.8662 14.8918 15.7925 14.7669 15.7122L14.5794 15.5918C14.392 15.4512 14.1733 15.2371 13.9234 14.9493C13.6735 14.6616 13.4595 14.4022 13.2815 14.1714C13.1034 13.9405 12.9129 13.7464 12.7098 13.5891C12.5067 13.4319 12.3302 13.38 12.1803 13.4336C12.1616 13.4402 12.1366 13.452 12.1053 13.4687C12.0741 13.4854 12.021 13.5339 11.946 13.6142C11.871 13.6946 11.8039 13.7933 11.7445 13.9104C11.6852 14.0275 11.6321 14.2015 11.5852 14.4324C11.5384 14.6632 11.518 14.9226 11.5243 15.2103C11.5243 15.3107 11.5134 15.4027 11.4915 15.4864C11.4696 15.57 11.4462 15.6319 11.4212 15.6721L11.3837 15.7223C11.2713 15.8494 11.1057 15.923 10.887 15.9431H9.80929C9.3657 15.9699 8.90962 15.9147 8.44104 15.7775C7.97246 15.6403 7.56167 15.463 7.20868 15.2455C6.85568 15.028 6.53392 14.8071 6.2434 14.5829C5.95288 14.3587 5.73265 14.1663 5.58271 14.0057L5.34842 13.7648C5.28594 13.6979 5.20003 13.5975 5.0907 13.4637C4.98136 13.3298 4.75801 13.0253 4.42063 12.5502C4.08325 12.075 3.75212 11.5698 3.42724 11.0344C3.10236 10.499 2.71969 9.79302 2.27922 8.91635C1.83876 8.03967 1.43109 7.12954 1.05623 6.18595C1.01874 6.07887 1 5.98853 1 5.91491C1 5.8413 1.00937 5.78776 1.02811 5.7543L1.0656 5.69407C1.15932 5.56692 1.33738 5.50335 1.59978 5.50335L4.1676 5.48327C4.24257 5.49665 4.31442 5.5184 4.38314 5.54852C4.45187 5.57863 4.50185 5.60707 4.53309 5.63384L4.57995 5.66396C4.67991 5.73757 4.75488 5.84465 4.80486 5.98518C4.92982 6.31979 5.07352 6.66611 5.23596 7.02414C5.3984 7.38217 5.52648 7.65488 5.62019 7.84226L5.77014 8.13337C5.95132 8.53489 6.12626 8.88289 6.29495 9.17734C6.46364 9.4718 6.61514 9.701 6.74947 9.86496C6.8838 10.0289 7.01344 10.1577 7.13839 10.2514C7.26334 10.3451 7.36956 10.392 7.45702 10.392C7.54449 10.392 7.62884 10.3752 7.71006 10.3418C7.72255 10.3351 7.73817 10.3184 7.75692 10.2916C7.77566 10.2648 7.81314 10.1912 7.86937 10.0707C7.9256 9.95029 7.96778 9.79302 7.99589 9.59895C8.02401 9.40488 8.05368 9.13384 8.08492 8.78585C8.11616 8.43786 8.11616 8.0196 8.08492 7.53107C8.07242 7.26338 8.04431 7.01912 8.00058 6.79828C7.95684 6.57744 7.91311 6.42352 7.86937 6.33652L7.81314 6.21606C7.65695 5.98853 7.39142 5.84465 7.01656 5.78442C6.93534 5.77103 6.95096 5.69073 7.06342 5.5435C7.16338 5.41635 7.28209 5.31597 7.41954 5.24235C7.75067 5.06836 8.49727 4.98805 9.65935 5.00143C10.1717 5.00813 10.5934 5.05163 10.9245 5.13193C11.0495 5.16539 11.1541 5.21056 11.2385 5.26745C11.3228 5.32433 11.3868 5.40464 11.4306 5.50837C11.4743 5.61209 11.5071 5.71917 11.529 5.82959C11.5508 5.94001 11.5618 6.09226 11.5618 6.28633C11.5618 6.4804 11.5587 6.66444 11.5524 6.83843C11.5462 7.01243 11.5384 7.24833 11.529 7.54613C11.5196 7.84393 11.5149 8.11998 11.5149 8.37428C11.5149 8.4479 11.5118 8.58843 11.5056 8.79589C11.4993 9.00335 11.4977 9.16396 11.5009 9.27772C11.504 9.39149 11.5149 9.52701 11.5337 9.68427C11.5524 9.84154 11.5883 9.97204 11.6414 10.0758C11.6945 10.1795 11.7648 10.2615 11.8523 10.3217C11.9023 10.3351 11.9554 10.3485 12.0116 10.3619C12.0678 10.3752 12.1491 10.3384 12.2553 10.2514C12.3615 10.1644 12.4802 10.049 12.6114 9.90511C12.7426 9.76123 12.905 9.53705 13.0987 9.23255C13.2924 8.92806 13.5048 8.56836 13.736 8.15344C14.1109 7.45746 14.4451 6.70459 14.7387 5.89484C14.7637 5.82792 14.795 5.76936 14.8325 5.71917C14.87 5.66898 14.9043 5.63384 14.9356 5.61377L14.973 5.58365L15.0199 5.55856L15.1417 5.52844L15.3292 5.52342L18.0282 5.50335C18.2718 5.46989 18.4718 5.47825 18.628 5.52844C18.7842 5.57863 18.881 5.63384 18.9185 5.69407L18.9747 5.79446Z" fill="white"/>
</svg>
