<svg width="20" height="20" fill="none" xmlns="http://www.w3.org/2000/svg"><path d="M18.975 5.794c.143.429-.325 1.413-1.406 2.952-.15.214-.353.498-.61.853-.25.341-.42.582-.515.723-.093.14-.189.306-.285.497-.097.19-.135.33-.113.421.022.09.063.206.122.346.06.141.16.285.305.432.143.147.321.325.534.532.025.014.04.027.046.04.881.877 1.478 1.617 1.79 2.219.02.033.04.075.061.125.022.05.044.14.066.266a.83.83 0 0 1-.005.342c-.025.1-.103.192-.234.276-.131.083-.316.125-.553.125l-2.399.04a.985.985 0 0 1-.525-.05c-.2-.067-.362-.14-.487-.22l-.188-.121a4.52 4.52 0 0 1-.656-.643c-.25-.287-.463-.547-.642-.778a3.208 3.208 0 0 0-.571-.582c-.203-.157-.38-.209-.53-.155a.589.589 0 0 0-.075.035 1.28 1.28 0 0 0-.36.442c-.06.116-.113.29-.16.521-.047.231-.067.49-.06.778 0 .1-.012.193-.034.276a.707.707 0 0 1-.07.186l-.037.05c-.113.127-.278.201-.497.221H9.809a3.99 3.99 0 0 1-1.368-.165 5.038 5.038 0 0 1-1.232-.533 11.174 11.174 0 0 1-.966-.662 5.67 5.67 0 0 1-.66-.577l-.235-.241a6.465 6.465 0 0 1-.257-.301 21.42 21.42 0 0 1-.67-.914c-.338-.475-.669-.98-.994-1.516A31.34 31.34 0 0 1 2.28 8.916a34.221 34.221 0 0 1-1.223-2.73A.85.85 0 0 1 1 5.915a.35.35 0 0 1 .028-.16l.038-.06c.093-.128.271-.192.534-.192l2.568-.02a.951.951 0 0 1 .365.15l.047.031c.1.074.175.18.225.321.125.335.269.681.431 1.04.162.357.29.63.384.817l.15.291c.181.402.356.75.525 1.044.169.295.32.524.454.688.135.164.264.293.39.386.124.094.23.141.318.141a.66.66 0 0 0 .253-.05.166.166 0 0 0 .047-.05 1.712 1.712 0 0 0 .239-.693c.028-.194.058-.465.089-.813a8.352 8.352 0 0 0 0-1.255A4.982 4.982 0 0 0 8 6.798a2.022 2.022 0 0 0-.132-.461l-.056-.12c-.156-.228-.422-.372-.796-.433-.082-.013-.066-.093.046-.24.1-.128.22-.228.357-.302.33-.174 1.077-.254 2.24-.24.512.006.933.05 1.264.13.126.033.23.079.315.135a.53.53 0 0 1 .192.241c.043.104.076.211.098.322.022.11.033.262.033.456s-.003.378-.01.552l-.023.708c-.01.298-.014.574-.014.828 0 .074-.003.214-.01.422a8.824 8.824 0 0 0-.004.482c.003.113.014.249.033.406.018.158.054.288.107.392a.653.653 0 0 0 .211.246c.05.013.103.027.16.04.056.013.137-.024.243-.11.106-.088.225-.203.356-.347a5.16 5.16 0 0 0 .488-.672c.193-.305.406-.665.637-1.08.375-.696.71-1.448 1.003-2.258a.702.702 0 0 1 .093-.176.431.431 0 0 1 .104-.105l.037-.03.047-.025.122-.03.187-.006 2.7-.02c.243-.033.443-.025.599.025.156.05.253.106.29.166l.057.1Z" fill="#fff"/></svg>